<svg xmlns="http://www.w3.org/2000/svg" viewBox="0 0 256 256">
  <defs>
    <linearGradient id="cloudCore" x1="38" y1="34" x2="208" y2="226" gradientUnits="userSpaceOnUse">
      <stop offset="0" stop-color="#6a92ff"/>
      <stop offset=".46" stop-color="#3c52f2"/>
      <stop offset="1" stop-color="#2739bb"/>
    </linearGradient>
    <linearGradient id="cloudAi" x1="98" y1="104" x2="158" y2="170" gradientUnits="userSpaceOnUse">
      <stop offset="0" stop-color="#6a92ff"/>
      <stop offset=".5" stop-color="#3448f4"/>
      <stop offset="1" stop-color="#2031ac"/>
    </linearGradient>
    <radialGradient id="cloudGlow" cx="36%" cy="24%" r="76%">
      <stop offset="0" stop-color="#ffffff" stop-opacity=".34"/>
      <stop offset=".56" stop-color="#ffffff" stop-opacity=".11"/>
      <stop offset="1" stop-color="#ffffff" stop-opacity="0"/>
    </radialGradient>
  </defs>

  <rect width="256" height="256" rx="64" fill="url(#cloudCore)"/>
  <rect x="4" y="4" width="248" height="248" rx="60" fill="none" stroke="#dbe4ff" stroke-opacity=".22" stroke-width="4"/>
  <ellipse cx="110" cy="62" rx="90" ry="40" fill="url(#cloudGlow)"/>

  <path
    fill="#f5f8ff"
    d="M90 176c-18 0-32-13-32-29 0-14 10-25 24-29 4-25 26-44 54-44 24 0 46 15 53 35 18 1 32 14 32 29 0 20-17 38-39 38H90z"
  />

  <g fill="none" stroke="url(#cloudAi)" stroke-width="10" stroke-linecap="round" stroke-linejoin="round">
    <path d="M104 136 128 116 152 136"/>
    <path d="M128 116v28"/>
  </g>

  <g fill="url(#cloudAi)">
    <circle cx="104" cy="136" r="9"/>
    <circle cx="128" cy="114" r="11"/>
    <circle cx="152" cy="136" r="9"/>
    <circle cx="128" cy="150" r="7"/>
  </g>
</svg>
